<svg xmlns="http://www.w3.org/2000/svg" version="1.1" xmlns:xlink="http://www.w3.org/1999/xlink" xmlns:svgjs="http://svgjs.dev/svgjs" viewBox="0 0 800 800" opacity="0.2" width="800" height="800"><g stroke-width="0.5" stroke="hsla(0, 0%, 100%, 1.00)" fill="none"><line x1="0" y1="0" x2="50" y2="50"></line><line x1="50" y1="0" x2="0" y2="50"></line><line x1="50" y1="0" x2="100" y2="50"></line><line x1="100" y1="0" x2="50" y2="50"></line><line x1="100" y1="0" x2="150" y2="50"></line><line x1="150" y1="0" x2="100" y2="50"></line><line x1="150" y1="0" x2="200" y2="50"></line><line x1="200" y1="0" x2="150" y2="50"></line><line x1="200" y1="0" x2="250" y2="50"></line><line x1="250" y1="0" x2="200" y2="50"></line><line x1="250" y1="0" x2="300" y2="50"></line><line x1="300" y1="0" x2="250" y2="50"></line><line x1="300" y1="0" x2="350" y2="50"></line><line x1="350" y1="0" x2="300" y2="50"></line><line x1="350" y1="0" x2="400" y2="50"></line><line x1="400" y1="0" x2="350" y2="50"></line><line x1="400" y1="0" x2="450" y2="50"></line><line x1="450" y1="0" x2="400" y2="50"></line><line x1="450" y1="0" x2="500" y2="50"></line><line x1="500" y1="0" x2="450" y2="50"></line><line x1="500" y1="0" x2="550" y2="50"></line><line x1="550" y1="0" x2="500" y2="50"></line><line x1="550" y1="0" x2="600" y2="50"></line><line x1="600" y1="0" x2="550" y2="50"></line><line x1="600" y1="0" x2="650" y2="50"></line><line x1="650" y1="0" x2="600" y2="50"></line><line x1="650" y1="0" x2="700" y2="50"></line><line x1="700" y1="0" x2="650" y2="50"></line><line x1="700" y1="0" x2="750" y2="50"></line><line x1="750" y1="0" x2="700" y2="50"></line><line x1="750" y1="0" x2="800" y2="50"></line><line x1="800" y1="0" x2="750" y2="50"></line><line x1="800" y1="0" x2="850" y2="50"></line><line x1="850" y1="0" x2="800" y2="50"></line><line x1="0" y1="50" x2="50" y2="100"></line><line x1="50" y1="50" x2="0" y2="100"></line><line x1="50" y1="50" x2="100" y2="100"></line><line x1="100" y1="50" x2="50" y2="100"></line><line x1="100" y1="50" x2="150" y2="100"></line><line x1="150" y1="50" x2="100" y2="100"></line><line x1="150" y1="50" x2="200" y2="100"></line><line x1="200" y1="50" x2="150" y2="100"></line><line x1="200" y1="50" x2="250" y2="100"></line><line x1="250" y1="50" x2="200" y2="100"></line><line x1="250" y1="50" x2="300" y2="100"></line><line x1="300" y1="50" x2="250" y2="100"></line><line x1="300" y1="50" x2="350" y2="100"></line><line x1="350" y1="50" x2="300" y2="100"></line><line x1="350" y1="50" x2="400" y2="100"></line><line x1="400" y1="50" x2="350" y2="100"></line><line x1="400" y1="50" x2="450" y2="100"></line><line x1="450" y1="50" x2="400" y2="100"></line><line x1="450" y1="50" x2="500" y2="100"></line><line x1="500" y1="50" x2="450" y2="100"></line><line x1="500" y1="50" x2="550" y2="100"></line><line x1="550" y1="50" x2="500" y2="100"></line><line x1="550" y1="50" x2="600" y2="100"></line><line x1="600" y1="50" x2="550" y2="100"></line><line x1="600" y1="50" x2="650" y2="100"></line><line x1="650" y1="50" x2="600" y2="100"></line><line x1="650" y1="50" x2="700" y2="100"></line><line x1="700" y1="50" x2="650" y2="100"></line><line x1="700" y1="50" x2="750" y2="100"></line><line x1="750" y1="50" x2="700" y2="100"></line><line x1="750" y1="50" x2="800" y2="100"></line><line x1="800" y1="50" x2="750" y2="100"></line><line x1="800" y1="50" x2="850" y2="100"></line><line x1="850" y1="50" x2="800" y2="100"></line><line x1="0" y1="100" x2="50" y2="150"></line><line x1="50" y1="100" x2="0" y2="150"></line><line x1="50" y1="100" x2="100" y2="150"></line><line x1="100" y1="100" x2="50" y2="150"></line><line x1="100" y1="100" x2="150" y2="150"></line><line x1="150" y1="100" x2="100" y2="150"></line><line x1="150" y1="100" x2="200" y2="150"></line><line x1="200" y1="100" x2="150" y2="150"></line><line x1="200" y1="100" x2="250" y2="150"></line><line x1="250" y1="100" x2="200" y2="150"></line><line x1="250" y1="100" x2="300" y2="150"></line><line x1="300" y1="100" x2="250" y2="150"></line><line x1="300" y1="100" x2="350" y2="150"></line><line x1="350" y1="100" x2="300" y2="150"></line><line x1="350" y1="100" x2="400" y2="150"></line><line x1="400" y1="100" x2="350" y2="150"></line><line x1="400" y1="100" x2="450" y2="150"></line><line x1="450" y1="100" x2="400" y2="150"></line><line x1="450" y1="100" x2="500" y2="150"></line><line x1="500" y1="100" x2="450" y2="150"></line><line x1="500" y1="100" x2="550" y2="150"></line><line x1="550" y1="100" x2="500" y2="150"></line><line x1="550" y1="100" x2="600" y2="150"></line><line x1="600" y1="100" x2="550" y2="150"></line><line x1="600" y1="100" x2="650" y2="150"></line><line x1="650" y1="100" x2="600" y2="150"></line><line x1="650" y1="100" x2="700" y2="150"></line><line x1="700" y1="100" x2="650" y2="150"></line><line x1="700" y1="100" x2="750" y2="150"></line><line x1="750" y1="100" x2="700" y2="150"></line><line x1="750" y1="100" x2="800" y2="150"></line><line x1="800" y1="100" x2="750" y2="150"></line><line x1="800" y1="100" x2="850" y2="150"></line><line x1="850" y1="100" x2="800" y2="150"></line><line x1="0" y1="150" x2="50" y2="200"></line><line x1="50" y1="150" x2="0" y2="200"></line><line x1="50" y1="150" x2="100" y2="200"></line><line x1="100" y1="150" x2="50" y2="200"></line><line x1="100" y1="150" x2="150" y2="200"></line><line x1="150" y1="150" x2="100" y2="200"></line><line x1="150" y1="150" x2="200" y2="200"></line><line x1="200" y1="150" x2="150" y2="200"></line><line x1="200" y1="150" x2="250" y2="200"></line><line x1="250" y1="150" x2="200" y2="200"></line><line x1="250" y1="150" x2="300" y2="200"></line><line x1="300" y1="150" x2="250" y2="200"></line><line x1="300" y1="150" x2="350" y2="200"></line><line x1="350" y1="150" x2="300" y2="200"></line><line x1="350" y1="150" x2="400" y2="200"></line><line x1="400" y1="150" x2="350" y2="200"></line><line x1="400" y1="150" x2="450" y2="200"></line><line x1="450" y1="150" x2="400" y2="200"></line><line x1="450" y1="150" x2="500" y2="200"></line><line x1="500" y1="150" x2="450" y2="200"></line><line x1="500" y1="150" x2="550" y2="200"></line><line x1="550" y1="150" x2="500" y2="200"></line><line x1="550" y1="150" x2="600" y2="200"></line><line x1="600" y1="150" x2="550" y2="200"></line><line x1="600" y1="150" x2="650" y2="200"></line><line x1="650" y1="150" x2="600" y2="200"></line><line x1="650" y1="150" x2="700" y2="200"></line><line x1="700" y1="150" x2="650" y2="200"></line><line x1="700" y1="150" x2="750" y2="200"></line><line x1="750" y1="150" x2="700" y2="200"></line><line x1="750" y1="150" x2="800" y2="200"></line><line x1="800" y1="150" x2="750" y2="200"></line><line x1="800" y1="150" x2="850" y2="200"></line><line x1="850" y1="150" x2="800" y2="200"></line><line x1="0" y1="200" x2="50" y2="250"></line><line x1="50" y1="200" x2="0" y2="250"></line><line x1="50" y1="200" x2="100" y2="250"></line><line x1="100" y1="200" x2="50" y2="250"></line><line x1="100" y1="200" x2="150" y2="250"></line><line x1="150" y1="200" x2="100" y2="250"></line><line x1="150" y1="200" x2="200" y2="250"></line><line x1="200" y1="200" x2="150" y2="250"></line><line x1="200" y1="200" x2="250" y2="250"></line><line x1="250" y1="200" x2="200" y2="250"></line><line x1="250" y1="200" x2="300" y2="250"></line><line x1="300" y1="200" x2="250" y2="250"></line><line x1="300" y1="200" x2="350" y2="250"></line><line x1="350" y1="200" x2="300" y2="250"></line><line x1="350" y1="200" x2="400" y2="250"></line><line x1="400" y1="200" x2="350" y2="250"></line><line x1="400" y1="200" x2="450" y2="250"></line><line x1="450" y1="200" x2="400" y2="250"></line><line x1="450" y1="200" x2="500" y2="250"></line><line x1="500" y1="200" x2="450" y2="250"></line><line x1="500" y1="200" x2="550" y2="250"></line><line x1="550" y1="200" x2="500" y2="250"></line><line x1="550" y1="200" x2="600" y2="250"></line><line x1="600" y1="200" x2="550" y2="250"></line><line x1="600" y1="200" x2="650" y2="250"></line><line x1="650" y1="200" x2="600" y2="250"></line><line x1="650" y1="200" x2="700" y2="250"></line><line x1="700" y1="200" x2="650" y2="250"></line><line x1="700" y1="200" x2="750" y2="250"></line><line x1="750" y1="200" x2="700" y2="250"></line><line x1="750" y1="200" x2="800" y2="250"></line><line x1="800" y1="200" x2="750" y2="250"></line><line x1="800" y1="200" x2="850" y2="250"></line><line x1="850" y1="200" x2="800" y2="250"></line><line x1="0" y1="250" x2="50" y2="300"></line><line x1="50" y1="250" x2="0" y2="300"></line><line x1="50" y1="250" x2="100" y2="300"></line><line x1="100" y1="250" x2="50" y2="300"></line><line x1="100" y1="250" x2="150" y2="300"></line><line x1="150" y1="250" x2="100" y2="300"></line><line x1="150" y1="250" x2="200" y2="300"></line><line x1="200" y1="250" x2="150" y2="300"></line><line x1="200" y1="250" x2="250" y2="300"></line><line x1="250" y1="250" x2="200" y2="300"></line><line x1="250" y1="250" x2="300" y2="300"></line><line x1="300" y1="250" x2="250" y2="300"></line><line x1="300" y1="250" x2="350" y2="300"></line><line x1="350" y1="250" x2="300" y2="300"></line><line x1="350" y1="250" x2="400" y2="300"></line><line x1="400" y1="250" x2="350" y2="300"></line><line x1="400" y1="250" x2="450" y2="300"></line><line x1="450" y1="250" x2="400" y2="300"></line><line x1="450" y1="250" x2="500" y2="300"></line><line x1="500" y1="250" x2="450" y2="300"></line><line x1="500" y1="250" x2="550" y2="300"></line><line x1="550" y1="250" x2="500" y2="300"></line><line x1="550" y1="250" x2="600" y2="300"></line><line x1="600" y1="250" x2="550" y2="300"></line><line x1="600" y1="250" x2="650" y2="300"></line><line x1="650" y1="250" x2="600" y2="300"></line><line x1="650" y1="250" x2="700" y2="300"></line><line x1="700" y1="250" x2="650" y2="300"></line><line x1="700" y1="250" x2="750" y2="300"></line><line x1="750" y1="250" x2="700" y2="300"></line><line x1="750" y1="250" x2="800" y2="300"></line><line x1="800" y1="250" x2="750" y2="300"></line><line x1="800" y1="250" x2="850" y2="300"></line><line x1="850" y1="250" x2="800" y2="300"></line><line x1="0" y1="300" x2="50" y2="350"></line><line x1="50" y1="300" x2="0" y2="350"></line><line x1="50" y1="300" x2="100" y2="350"></line><line x1="100" y1="300" x2="50" y2="350"></line><line x1="100" y1="300" x2="150" y2="350"></line><line x1="150" y1="300" x2="100" y2="350"></line><line x1="150" y1="300" x2="200" y2="350"></line><line x1="200" y1="300" x2="150" y2="350"></line><line x1="200" y1="300" x2="250" y2="350"></line><line x1="250" y1="300" x2="200" y2="350"></line><line x1="250" y1="300" x2="300" y2="350"></line><line x1="300" y1="300" x2="250" y2="350"></line><line x1="300" y1="300" x2="350" y2="350"></line><line x1="350" y1="300" x2="300" y2="350"></line><line x1="350" y1="300" x2="400" y2="350"></line><line x1="400" y1="300" x2="350" y2="350"></line><line x1="400" y1="300" x2="450" y2="350"></line><line x1="450" y1="300" x2="400" y2="350"></line><line x1="450" y1="300" x2="500" y2="350"></line><line x1="500" y1="300" x2="450" y2="350"></line><line x1="500" y1="300" x2="550" y2="350"></line><line x1="550" y1="300" x2="500" y2="350"></line><line x1="550" y1="300" x2="600" y2="350"></line><line x1="600" y1="300" x2="550" y2="350"></line><line x1="600" y1="300" x2="650" y2="350"></line><line x1="650" y1="300" x2="600" y2="350"></line><line x1="650" y1="300" x2="700" y2="350"></line><line x1="700" y1="300" x2="650" y2="350"></line><line x1="700" y1="300" x2="750" y2="350"></line><line x1="750" y1="300" x2="700" y2="350"></line><line x1="750" y1="300" x2="800" y2="350"></line><line x1="800" y1="300" x2="750" y2="350"></line><line x1="800" y1="300" x2="850" y2="350"></line><line x1="850" y1="300" x2="800" y2="350"></line><line x1="0" y1="350" x2="50" y2="400"></line><line x1="50" y1="350" x2="0" y2="400"></line><line x1="50" y1="350" x2="100" y2="400"></line><line x1="100" y1="350" x2="50" y2="400"></line><line x1="100" y1="350" x2="150" y2="400"></line><line x1="150" y1="350" x2="100" y2="400"></line><line x1="150" y1="350" x2="200" y2="400"></line><line x1="200" y1="350" x2="150" y2="400"></line><line x1="200" y1="350" x2="250" y2="400"></line><line x1="250" y1="350" x2="200" y2="400"></line><line x1="250" y1="350" x2="300" y2="400"></line><line x1="300" y1="350" x2="250" y2="400"></line><line x1="300" y1="350" x2="350" y2="400"></line><line x1="350" y1="350" x2="300" y2="400"></line><line x1="350" y1="350" x2="400" y2="400"></line><line x1="400" y1="350" x2="350" y2="400"></line><line x1="400" y1="350" x2="450" y2="400"></line><line x1="450" y1="350" x2="400" y2="400"></line><line x1="450" y1="350" x2="500" y2="400"></line><line x1="500" y1="350" x2="450" y2="400"></line><line x1="500" y1="350" x2="550" y2="400"></line><line x1="550" y1="350" x2="500" y2="400"></line><line x1="550" y1="350" x2="600" y2="400"></line><line x1="600" y1="350" x2="550" y2="400"></line><line x1="600" y1="350" x2="650" y2="400"></line><line x1="650" y1="350" x2="600" y2="400"></line><line x1="650" y1="350" x2="700" y2="400"></line><line x1="700" y1="350" x2="650" y2="400"></line><line x1="700" y1="350" x2="750" y2="400"></line><line x1="750" y1="350" x2="700" y2="400"></line><line x1="750" y1="350" x2="800" y2="400"></line><line x1="800" y1="350" x2="750" y2="400"></line><line x1="800" y1="350" x2="850" y2="400"></line><line x1="850" y1="350" x2="800" y2="400"></line><line x1="0" y1="400" x2="50" y2="450"></line><line x1="50" y1="400" x2="0" y2="450"></line><line x1="50" y1="400" x2="100" y2="450"></line><line x1="100" y1="400" x2="50" y2="450"></line><line x1="100" y1="400" x2="150" y2="450"></line><line x1="150" y1="400" x2="100" y2="450"></line><line x1="150" y1="400" x2="200" y2="450"></line><line x1="200" y1="400" x2="150" y2="450"></line><line x1="200" y1="400" x2="250" y2="450"></line><line x1="250" y1="400" x2="200" y2="450"></line><line x1="250" y1="400" x2="300" y2="450"></line><line x1="300" y1="400" x2="250" y2="450"></line><line x1="300" y1="400" x2="350" y2="450"></line><line x1="350" y1="400" x2="300" y2="450"></line><line x1="350" y1="400" x2="400" y2="450"></line><line x1="400" y1="400" x2="350" y2="450"></line><line x1="400" y1="400" x2="450" y2="450"></line><line x1="450" y1="400" x2="400" y2="450"></line><line x1="450" y1="400" x2="500" y2="450"></line><line x1="500" y1="400" x2="450" y2="450"></line><line x1="500" y1="400" x2="550" y2="450"></line><line x1="550" y1="400" x2="500" y2="450"></line><line x1="550" y1="400" x2="600" y2="450"></line><line x1="600" y1="400" x2="550" y2="450"></line><line x1="600" y1="400" x2="650" y2="450"></line><line x1="650" y1="400" x2="600" y2="450"></line><line x1="650" y1="400" x2="700" y2="450"></line><line x1="700" y1="400" x2="650" y2="450"></line><line x1="700" y1="400" x2="750" y2="450"></line><line x1="750" y1="400" x2="700" y2="450"></line><line x1="750" y1="400" x2="800" y2="450"></line><line x1="800" y1="400" x2="750" y2="450"></line><line x1="800" y1="400" x2="850" y2="450"></line><line x1="850" y1="400" x2="800" y2="450"></line><line x1="0" y1="450" x2="50" y2="500"></line><line x1="50" y1="450" x2="0" y2="500"></line><line x1="50" y1="450" x2="100" y2="500"></line><line x1="100" y1="450" x2="50" y2="500"></line><line x1="100" y1="450" x2="150" y2="500"></line><line x1="150" y1="450" x2="100" y2="500"></line><line x1="150" y1="450" x2="200" y2="500"></line><line x1="200" y1="450" x2="150" y2="500"></line><line x1="200" y1="450" x2="250" y2="500"></line><line x1="250" y1="450" x2="200" y2="500"></line><line x1="250" y1="450" x2="300" y2="500"></line><line x1="300" y1="450" x2="250" y2="500"></line><line x1="300" y1="450" x2="350" y2="500"></line><line x1="350" y1="450" x2="300" y2="500"></line><line x1="350" y1="450" x2="400" y2="500"></line><line x1="400" y1="450" x2="350" y2="500"></line><line x1="400" y1="450" x2="450" y2="500"></line><line x1="450" y1="450" x2="400" y2="500"></line><line x1="450" y1="450" x2="500" y2="500"></line><line x1="500" y1="450" x2="450" y2="500"></line><line x1="500" y1="450" x2="550" y2="500"></line><line x1="550" y1="450" x2="500" y2="500"></line><line x1="550" y1="450" x2="600" y2="500"></line><line x1="600" y1="450" x2="550" y2="500"></line><line x1="600" y1="450" x2="650" y2="500"></line><line x1="650" y1="450" x2="600" y2="500"></line><line x1="650" y1="450" x2="700" y2="500"></line><line x1="700" y1="450" x2="650" y2="500"></line><line x1="700" y1="450" x2="750" y2="500"></line><line x1="750" y1="450" x2="700" y2="500"></line><line x1="750" y1="450" x2="800" y2="500"></line><line x1="800" y1="450" x2="750" y2="500"></line><line x1="800" y1="450" x2="850" y2="500"></line><line x1="850" y1="450" x2="800" y2="500"></line><line x1="0" y1="500" x2="50" y2="550"></line><line x1="50" y1="500" x2="0" y2="550"></line><line x1="50" y1="500" x2="100" y2="550"></line><line x1="100" y1="500" x2="50" y2="550"></line><line x1="100" y1="500" x2="150" y2="550"></line><line x1="150" y1="500" x2="100" y2="550"></line><line x1="150" y1="500" x2="200" y2="550"></line><line x1="200" y1="500" x2="150" y2="550"></line><line x1="200" y1="500" x2="250" y2="550"></line><line x1="250" y1="500" x2="200" y2="550"></line><line x1="250" y1="500" x2="300" y2="550"></line><line x1="300" y1="500" x2="250" y2="550"></line><line x1="300" y1="500" x2="350" y2="550"></line><line x1="350" y1="500" x2="300" y2="550"></line><line x1="350" y1="500" x2="400" y2="550"></line><line x1="400" y1="500" x2="350" y2="550"></line><line x1="400" y1="500" x2="450" y2="550"></line><line x1="450" y1="500" x2="400" y2="550"></line><line x1="450" y1="500" x2="500" y2="550"></line><line x1="500" y1="500" x2="450" y2="550"></line><line x1="500" y1="500" x2="550" y2="550"></line><line x1="550" y1="500" x2="500" y2="550"></line><line x1="550" y1="500" x2="600" y2="550"></line><line x1="600" y1="500" x2="550" y2="550"></line><line x1="600" y1="500" x2="650" y2="550"></line><line x1="650" y1="500" x2="600" y2="550"></line><line x1="650" y1="500" x2="700" y2="550"></line><line x1="700" y1="500" x2="650" y2="550"></line><line x1="700" y1="500" x2="750" y2="550"></line><line x1="750" y1="500" x2="700" y2="550"></line><line x1="750" y1="500" x2="800" y2="550"></line><line x1="800" y1="500" x2="750" y2="550"></line><line x1="800" y1="500" x2="850" y2="550"></line><line x1="850" y1="500" x2="800" y2="550"></line><line x1="0" y1="550" x2="50" y2="600"></line><line x1="50" y1="550" x2="0" y2="600"></line><line x1="50" y1="550" x2="100" y2="600"></line><line x1="100" y1="550" x2="50" y2="600"></line><line x1="100" y1="550" x2="150" y2="600"></line><line x1="150" y1="550" x2="100" y2="600"></line><line x1="150" y1="550" x2="200" y2="600"></line><line x1="200" y1="550" x2="150" y2="600"></line><line x1="200" y1="550" x2="250" y2="600"></line><line x1="250" y1="550" x2="200" y2="600"></line><line x1="250" y1="550" x2="300" y2="600"></line><line x1="300" y1="550" x2="250" y2="600"></line><line x1="300" y1="550" x2="350" y2="600"></line><line x1="350" y1="550" x2="300" y2="600"></line><line x1="350" y1="550" x2="400" y2="600"></line><line x1="400" y1="550" x2="350" y2="600"></line><line x1="400" y1="550" x2="450" y2="600"></line><line x1="450" y1="550" x2="400" y2="600"></line><line x1="450" y1="550" x2="500" y2="600"></line><line x1="500" y1="550" x2="450" y2="600"></line><line x1="500" y1="550" x2="550" y2="600"></line><line x1="550" y1="550" x2="500" y2="600"></line><line x1="550" y1="550" x2="600" y2="600"></line><line x1="600" y1="550" x2="550" y2="600"></line><line x1="600" y1="550" x2="650" y2="600"></line><line x1="650" y1="550" x2="600" y2="600"></line><line x1="650" y1="550" x2="700" y2="600"></line><line x1="700" y1="550" x2="650" y2="600"></line><line x1="700" y1="550" x2="750" y2="600"></line><line x1="750" y1="550" x2="700" y2="600"></line><line x1="750" y1="550" x2="800" y2="600"></line><line x1="800" y1="550" x2="750" y2="600"></line><line x1="800" y1="550" x2="850" y2="600"></line><line x1="850" y1="550" x2="800" y2="600"></line><line x1="0" y1="600" x2="50" y2="650"></line><line x1="50" y1="600" x2="0" y2="650"></line><line x1="50" y1="600" x2="100" y2="650"></line><line x1="100" y1="600" x2="50" y2="650"></line><line x1="100" y1="600" x2="150" y2="650"></line><line x1="150" y1="600" x2="100" y2="650"></line><line x1="150" y1="600" x2="200" y2="650"></line><line x1="200" y1="600" x2="150" y2="650"></line><line x1="200" y1="600" x2="250" y2="650"></line><line x1="250" y1="600" x2="200" y2="650"></line><line x1="250" y1="600" x2="300" y2="650"></line><line x1="300" y1="600" x2="250" y2="650"></line><line x1="300" y1="600" x2="350" y2="650"></line><line x1="350" y1="600" x2="300" y2="650"></line><line x1="350" y1="600" x2="400" y2="650"></line><line x1="400" y1="600" x2="350" y2="650"></line><line x1="400" y1="600" x2="450" y2="650"></line><line x1="450" y1="600" x2="400" y2="650"></line><line x1="450" y1="600" x2="500" y2="650"></line><line x1="500" y1="600" x2="450" y2="650"></line><line x1="500" y1="600" x2="550" y2="650"></line><line x1="550" y1="600" x2="500" y2="650"></line><line x1="550" y1="600" x2="600" y2="650"></line><line x1="600" y1="600" x2="550" y2="650"></line><line x1="600" y1="600" x2="650" y2="650"></line><line x1="650" y1="600" x2="600" y2="650"></line><line x1="650" y1="600" x2="700" y2="650"></line><line x1="700" y1="600" x2="650" y2="650"></line><line x1="700" y1="600" x2="750" y2="650"></line><line x1="750" y1="600" x2="700" y2="650"></line><line x1="750" y1="600" x2="800" y2="650"></line><line x1="800" y1="600" x2="750" y2="650"></line><line x1="800" y1="600" x2="850" y2="650"></line><line x1="850" y1="600" x2="800" y2="650"></line><line x1="0" y1="650" x2="50" y2="700"></line><line x1="50" y1="650" x2="0" y2="700"></line><line x1="50" y1="650" x2="100" y2="700"></line><line x1="100" y1="650" x2="50" y2="700"></line><line x1="100" y1="650" x2="150" y2="700"></line><line x1="150" y1="650" x2="100" y2="700"></line><line x1="150" y1="650" x2="200" y2="700"></line><line x1="200" y1="650" x2="150" y2="700"></line><line x1="200" y1="650" x2="250" y2="700"></line><line x1="250" y1="650" x2="200" y2="700"></line><line x1="250" y1="650" x2="300" y2="700"></line><line x1="300" y1="650" x2="250" y2="700"></line><line x1="300" y1="650" x2="350" y2="700"></line><line x1="350" y1="650" x2="300" y2="700"></line><line x1="350" y1="650" x2="400" y2="700"></line><line x1="400" y1="650" x2="350" y2="700"></line><line x1="400" y1="650" x2="450" y2="700"></line><line x1="450" y1="650" x2="400" y2="700"></line><line x1="450" y1="650" x2="500" y2="700"></line><line x1="500" y1="650" x2="450" y2="700"></line><line x1="500" y1="650" x2="550" y2="700"></line><line x1="550" y1="650" x2="500" y2="700"></line><line x1="550" y1="650" x2="600" y2="700"></line><line x1="600" y1="650" x2="550" y2="700"></line><line x1="600" y1="650" x2="650" y2="700"></line><line x1="650" y1="650" x2="600" y2="700"></line><line x1="650" y1="650" x2="700" y2="700"></line><line x1="700" y1="650" x2="650" y2="700"></line><line x1="700" y1="650" x2="750" y2="700"></line><line x1="750" y1="650" x2="700" y2="700"></line><line x1="750" y1="650" x2="800" y2="700"></line><line x1="800" y1="650" x2="750" y2="700"></line><line x1="800" y1="650" x2="850" y2="700"></line><line x1="850" y1="650" x2="800" y2="700"></line><line x1="0" y1="700" x2="50" y2="750"></line><line x1="50" y1="700" x2="0" y2="750"></line><line x1="50" y1="700" x2="100" y2="750"></line><line x1="100" y1="700" x2="50" y2="750"></line><line x1="100" y1="700" x2="150" y2="750"></line><line x1="150" y1="700" x2="100" y2="750"></line><line x1="150" y1="700" x2="200" y2="750"></line><line x1="200" y1="700" x2="150" y2="750"></line><line x1="200" y1="700" x2="250" y2="750"></line><line x1="250" y1="700" x2="200" y2="750"></line><line x1="250" y1="700" x2="300" y2="750"></line><line x1="300" y1="700" x2="250" y2="750"></line><line x1="300" y1="700" x2="350" y2="750"></line><line x1="350" y1="700" x2="300" y2="750"></line><line x1="350" y1="700" x2="400" y2="750"></line><line x1="400" y1="700" x2="350" y2="750"></line><line x1="400" y1="700" x2="450" y2="750"></line><line x1="450" y1="700" x2="400" y2="750"></line><line x1="450" y1="700" x2="500" y2="750"></line><line x1="500" y1="700" x2="450" y2="750"></line><line x1="500" y1="700" x2="550" y2="750"></line><line x1="550" y1="700" x2="500" y2="750"></line><line x1="550" y1="700" x2="600" y2="750"></line><line x1="600" y1="700" x2="550" y2="750"></line><line x1="600" y1="700" x2="650" y2="750"></line><line x1="650" y1="700" x2="600" y2="750"></line><line x1="650" y1="700" x2="700" y2="750"></line><line x1="700" y1="700" x2="650" y2="750"></line><line x1="700" y1="700" x2="750" y2="750"></line><line x1="750" y1="700" x2="700" y2="750"></line><line x1="750" y1="700" x2="800" y2="750"></line><line x1="800" y1="700" x2="750" y2="750"></line><line x1="800" y1="700" x2="850" y2="750"></line><line x1="850" y1="700" x2="800" y2="750"></line><line x1="0" y1="750" x2="50" y2="800"></line><line x1="50" y1="750" x2="0" y2="800"></line><line x1="50" y1="750" x2="100" y2="800"></line><line x1="100" y1="750" x2="50" y2="800"></line><line x1="100" y1="750" x2="150" y2="800"></line><line x1="150" y1="750" x2="100" y2="800"></line><line x1="150" y1="750" x2="200" y2="800"></line><line x1="200" y1="750" x2="150" y2="800"></line><line x1="200" y1="750" x2="250" y2="800"></line><line x1="250" y1="750" x2="200" y2="800"></line><line x1="250" y1="750" x2="300" y2="800"></line><line x1="300" y1="750" x2="250" y2="800"></line><line x1="300" y1="750" x2="350" y2="800"></line><line x1="350" y1="750" x2="300" y2="800"></line><line x1="350" y1="750" x2="400" y2="800"></line><line x1="400" y1="750" x2="350" y2="800"></line><line x1="400" y1="750" x2="450" y2="800"></line><line x1="450" y1="750" x2="400" y2="800"></line><line x1="450" y1="750" x2="500" y2="800"></line><line x1="500" y1="750" x2="450" y2="800"></line><line x1="500" y1="750" x2="550" y2="800"></line><line x1="550" y1="750" x2="500" y2="800"></line><line x1="550" y1="750" x2="600" y2="800"></line><line x1="600" y1="750" x2="550" y2="800"></line><line x1="600" y1="750" x2="650" y2="800"></line><line x1="650" y1="750" x2="600" y2="800"></line><line x1="650" y1="750" x2="700" y2="800"></line><line x1="700" y1="750" x2="650" y2="800"></line><line x1="700" y1="750" x2="750" y2="800"></line><line x1="750" y1="750" x2="700" y2="800"></line><line x1="750" y1="750" x2="800" y2="800"></line><line x1="800" y1="750" x2="750" y2="800"></line><line x1="800" y1="750" x2="850" y2="800"></line><line x1="850" y1="750" x2="800" y2="800"></line><line x1="0" y1="800" x2="50" y2="850"></line><line x1="50" y1="800" x2="0" y2="850"></line><line x1="50" y1="800" x2="100" y2="850"></line><line x1="100" y1="800" x2="50" y2="850"></line><line x1="100" y1="800" x2="150" y2="850"></line><line x1="150" y1="800" x2="100" y2="850"></line><line x1="150" y1="800" x2="200" y2="850"></line><line x1="200" y1="800" x2="150" y2="850"></line><line x1="200" y1="800" x2="250" y2="850"></line><line x1="250" y1="800" x2="200" y2="850"></line><line x1="250" y1="800" x2="300" y2="850"></line><line x1="300" y1="800" x2="250" y2="850"></line><line x1="300" y1="800" x2="350" y2="850"></line><line x1="350" y1="800" x2="300" y2="850"></line><line x1="350" y1="800" x2="400" y2="850"></line><line x1="400" y1="800" x2="350" y2="850"></line><line x1="400" y1="800" x2="450" y2="850"></line><line x1="450" y1="800" x2="400" y2="850"></line><line x1="450" y1="800" x2="500" y2="850"></line><line x1="500" y1="800" x2="450" y2="850"></line><line x1="500" y1="800" x2="550" y2="850"></line><line x1="550" y1="800" x2="500" y2="850"></line><line x1="550" y1="800" x2="600" y2="850"></line><line x1="600" y1="800" x2="550" y2="850"></line><line x1="600" y1="800" x2="650" y2="850"></line><line x1="650" y1="800" x2="600" y2="850"></line><line x1="650" y1="800" x2="700" y2="850"></line><line x1="700" y1="800" x2="650" y2="850"></line><line x1="700" y1="800" x2="750" y2="850"></line><line x1="750" y1="800" x2="700" y2="850"></line><line x1="750" y1="800" x2="800" y2="850"></line><line x1="800" y1="800" x2="750" y2="850"></line><line x1="800" y1="800" x2="850" y2="850"></line><line x1="850" y1="800" x2="800" y2="850"></line></g></svg>