<svg width="455" height="96" viewBox="0 0 455 96" fill="none" xmlns="http://www.w3.org/2000/svg">
<path fill-rule="evenodd" clip-rule="evenodd" d="M26.2495 19.9379C31.7997 16.2294 38.3249 14.25 45 14.25C49.4559 14.247 53.8682 15.1264 57.9825 16.8375L61.4438 18.2812L64.3313 11.3587L60.87 9.915C55.98 7.875 50.6175 6.75 45 6.75C22.2188 6.75 3.75 25.2187 3.75 48C3.75 70.7812 22.2188 89.25 45 89.25C67.7812 89.25 86.25 70.7812 86.25 48V44.25H78.75V48C78.75 54.6751 76.7706 61.2003 73.0621 66.7505C69.3536 72.3006 64.0826 76.6265 57.9156 79.1809C51.7486 81.7354 44.9626 82.4038 38.4157 81.1015C31.8688 79.7993 25.8552 76.5849 21.1351 71.8648C16.4151 67.1448 13.2007 61.1312 11.8985 54.5843C10.5962 48.0374 11.2646 41.2514 13.8191 35.0844C16.3735 28.9174 20.6993 23.6464 26.2495 19.9379Z" fill="#2C6EE9"/>
<path d="M87.8025 19.875L45 62.6775L22.8225 40.5L28.125 35.1975L45 52.0725L82.5 14.5725L87.8025 19.875Z" fill="#2C6EE9"/>
<path fill-rule="evenodd" clip-rule="evenodd" d="M26.2495 19.9379C31.7997 16.2294 38.3249 14.25 45 14.25C49.4559 14.247 53.8682 15.1264 57.9825 16.8375L61.4438 18.2812L64.3313 11.3587L60.87 9.915C55.98 7.875 50.6175 6.75 45 6.75C22.2188 6.75 3.75 25.2187 3.75 48C3.75 70.7812 22.2188 89.25 45 89.25C67.7812 89.25 86.25 70.7812 86.25 48V44.25H78.75V48C78.75 54.6751 76.7706 61.2003 73.0621 66.7505C69.3536 72.3006 64.0826 76.6265 57.9156 79.1809C51.7486 81.7354 44.9626 82.4038 38.4157 81.1015C31.8688 79.7993 25.8552 76.5849 21.1351 71.8648C16.4151 67.1448 13.2007 61.1312 11.8985 54.5843C10.5962 48.0374 11.2646 41.2514 13.8191 35.0844C16.3735 28.9174 20.6993 23.6464 26.2495 19.9379Z" stroke="#2C6EE9" stroke-width="3"/>
<path d="M87.8025 19.875L45 62.6775L22.8225 40.5L28.125 35.1975L45 52.0725L82.5 14.5725L87.8025 19.875Z" stroke="#2C6EE9" stroke-width="3"/>
<path d="M190.844 28.25V68H181.304V31.748L183.636 31.907L167.471 68H157.242L141.077 32.013L143.409 31.801V68H133.869V28.25H149.292L164.397 63.018H160.369L175.421 28.25H190.844ZM215.007 68.848C211.191 68.848 207.852 68.1767 204.99 66.834C202.128 65.4913 199.902 63.6187 198.312 61.216C196.722 58.8133 195.927 56.0397 195.927 52.895C195.927 49.715 196.722 46.9413 198.312 44.574C199.902 42.1713 202.128 40.2987 204.99 38.956C207.888 37.6133 211.227 36.942 215.007 36.942C218.823 36.942 222.162 37.6133 225.024 38.956C227.886 40.2987 230.112 42.1713 231.702 44.574C233.328 46.9413 234.14 49.715 234.14 52.895C234.14 56.075 233.328 58.8663 231.702 61.269C230.112 63.6363 227.886 65.4913 225.024 66.834C222.162 68.1767 218.823 68.848 215.007 68.848ZM215.007 61.428C216.951 61.428 218.594 61.0923 219.936 60.421C221.314 59.7143 222.357 58.725 223.063 57.453C223.805 56.181 224.176 54.6617 224.176 52.895C224.176 51.1283 223.805 49.609 223.063 48.337C222.357 47.0297 221.314 46.0403 219.936 45.369C218.594 44.6623 216.951 44.309 215.007 44.309C213.135 44.309 211.509 44.6623 210.131 45.369C208.753 46.0403 207.693 47.0297 206.951 48.337C206.209 49.609 205.838 51.1283 205.838 52.895C205.838 54.6617 206.209 56.181 206.951 57.453C207.693 58.725 208.753 59.7143 210.131 60.421C211.509 61.0923 213.135 61.428 215.007 61.428ZM239.025 68V37.79H248.671V62.7L246.445 62.064L263.458 37.79H276.125V68H266.426V42.507L268.705 43.196L251.268 68H239.025ZM257.257 35.14C253.723 35.14 250.879 34.2743 248.724 32.543C246.568 30.8117 245.226 28.303 244.696 25.017H252.275C252.557 26.4657 253.123 27.5787 253.971 28.356C254.854 29.1333 255.949 29.522 257.257 29.522C258.599 29.522 259.695 29.1333 260.543 28.356C261.426 27.5787 261.991 26.4657 262.239 25.017H269.818C269.323 28.303 267.998 30.8117 265.843 32.543C263.687 34.2743 260.825 35.14 257.257 35.14ZM282.828 68V28.25H292.792V59.997L290.089 57.93L313.621 28.25H324.221L291.838 68H282.828ZM301.855 48.761L309.063 42.56L324.751 68H313.409L301.855 48.761ZM352.966 68L351.641 57.029L353.072 52.895L351.641 48.814L352.966 37.79H363.195L361.34 52.895L363.195 68H352.966ZM355.404 52.895C354.874 56.1103 353.867 58.9193 352.383 61.322C350.899 63.6893 349.026 65.5443 346.765 66.887C344.504 68.1943 341.96 68.848 339.133 68.848C336.165 68.848 333.55 68.1767 331.289 66.834C329.063 65.4913 327.314 63.6363 326.042 61.269C324.77 58.8663 324.134 56.075 324.134 52.895C324.134 49.715 324.77 46.9413 326.042 44.574C327.314 42.1713 329.063 40.2987 331.289 38.956C333.55 37.6133 336.165 36.942 339.133 36.942C341.96 36.942 344.504 37.6133 346.765 38.956C349.026 40.2633 350.899 42.1007 352.383 44.468C353.902 46.8353 354.909 49.6443 355.404 52.895ZM334.098 52.895C334.098 54.5203 334.434 55.969 335.105 57.241C335.776 58.4777 336.695 59.467 337.861 60.209C339.062 60.9157 340.44 61.269 341.995 61.269C343.55 61.269 345.016 60.9157 346.394 60.209C347.807 59.467 349.044 58.4777 350.104 57.241C351.164 55.969 351.959 54.5203 352.489 52.895C351.959 51.2697 351.164 49.8387 350.104 48.602C349.044 47.33 347.807 46.3407 346.394 45.634C345.016 44.892 343.55 44.521 341.995 44.521C340.44 44.521 339.062 44.892 337.861 45.634C336.695 46.3407 335.776 47.33 335.105 48.602C334.434 49.8387 334.098 51.2697 334.098 52.895ZM410.758 60.633V75.367H402.278V68H374.983V75.367H366.45V60.633H375.248L377.209 60.792H399.151L400.953 60.633H410.758ZM372.863 37.79H405.246V65.986H395.441V40.493L399.946 44.998H377.739L381.502 41.447C381.926 42.9663 382.173 44.3797 382.244 45.687C382.35 46.9943 382.403 48.2133 382.403 49.344C382.403 54.2907 381.608 58.142 380.018 60.898C378.428 63.654 376.184 65.032 373.287 65.032L369.259 61.693C372.05 59.7143 373.446 54.9443 373.446 47.383C373.446 45.899 373.393 44.362 373.287 42.772C373.181 41.1467 373.039 39.486 372.863 37.79ZM415.312 37.79H425.117V46.906L424.746 48.178V56.022L425.117 58.354V76.745H415.312V37.79ZM421.884 52.895C422.414 49.6443 423.421 46.8353 424.905 44.468C426.389 42.1007 428.262 40.2633 430.523 38.956C432.82 37.6133 435.364 36.942 438.155 36.942C441.123 36.942 443.72 37.6133 445.946 38.956C448.207 40.2987 449.974 42.1713 451.246 44.574C452.518 46.9413 453.154 49.715 453.154 52.895C453.154 56.075 452.518 58.8663 451.246 61.269C449.974 63.6363 448.207 65.4913 445.946 66.834C443.72 68.1767 441.123 68.848 438.155 68.848C435.328 68.848 432.784 68.1943 430.523 66.887C428.297 65.5443 426.424 63.6893 424.905 61.322C423.421 58.9193 422.414 56.1103 421.884 52.895ZM443.19 52.895C443.19 51.2697 442.854 49.8387 442.183 48.602C441.512 47.33 440.575 46.3407 439.374 45.634C438.208 44.892 436.848 44.521 435.293 44.521C433.738 44.521 432.254 44.892 430.841 45.634C429.463 46.3407 428.244 47.33 427.184 48.602C426.159 49.8387 425.364 51.2697 424.799 52.895C425.364 54.5203 426.159 55.969 427.184 57.241C428.244 58.4777 429.463 59.467 430.841 60.209C432.254 60.9157 433.738 61.269 435.293 61.269C436.848 61.269 438.208 60.9157 439.374 60.209C440.575 59.467 441.512 58.4777 442.183 57.241C442.854 55.969 443.19 54.5203 443.19 52.895Z" fill="#2B2A29"/>
</svg>
