<svg width="90" height="90" viewBox="0 0 90 90" fill="none" xmlns="http://www.w3.org/2000/svg">
<path fill-rule="evenodd" clip-rule="evenodd" d="M26.2495 16.9379C31.7997 13.2294 38.3249 11.25 45 11.25C49.4559 11.247 53.8682 12.1264 57.9825 13.8375L61.4438 15.2812L64.3313 8.35875L60.87 6.915C55.98 4.875 50.6175 3.75 45 3.75C22.2188 3.75 3.75 22.2187 3.75 45C3.75 67.7812 22.2188 86.25 45 86.25C67.7812 86.25 86.25 67.7812 86.25 45V41.25H78.75V45C78.75 51.6751 76.7706 58.2003 73.0621 63.7505C69.3536 69.3006 64.0826 73.6265 57.9156 76.1809C51.7486 78.7354 44.9626 79.4038 38.4157 78.1015C31.8688 76.7993 25.8552 73.5849 21.1351 68.8648C16.4151 64.1448 13.2007 58.1312 11.8985 51.5843C10.5962 45.0374 11.2646 38.2514 13.8191 32.0844C16.3735 25.9174 20.6993 20.6464 26.2495 16.9379Z" fill="#2C6EE9"/>
<path d="M87.8025 16.875L45 59.6775L22.8225 37.5L28.125 32.1975L45 49.0725L82.5 11.5725L87.8025 16.875Z" fill="#2C6EE9"/>
<path fill-rule="evenodd" clip-rule="evenodd" d="M26.2495 16.9379C31.7997 13.2294 38.3249 11.25 45 11.25C49.4559 11.247 53.8682 12.1264 57.9825 13.8375L61.4438 15.2812L64.3313 8.35875L60.87 6.915C55.98 4.875 50.6175 3.75 45 3.75C22.2188 3.75 3.75 22.2187 3.75 45C3.75 67.7812 22.2188 86.25 45 86.25C67.7812 86.25 86.25 67.7812 86.25 45V41.25H78.75V45C78.75 51.6751 76.7706 58.2003 73.0621 63.7505C69.3536 69.3006 64.0826 73.6265 57.9156 76.1809C51.7486 78.7354 44.9626 79.4038 38.4157 78.1015C31.8688 76.7993 25.8552 73.5849 21.1351 68.8648C16.4151 64.1448 13.2007 58.1312 11.8985 51.5843C10.5962 45.0374 11.2646 38.2514 13.8191 32.0844C16.3735 25.9174 20.6993 20.6464 26.2495 16.9379Z" stroke="#2C6EE9" stroke-width="3"/>
<path d="M87.8025 16.875L45 59.6775L22.8225 37.5L28.125 32.1975L45 49.0725L82.5 11.5725L87.8025 16.875Z" stroke="#2C6EE9" stroke-width="3"/>
</svg>
